# File exported by Houdini 18.5.596 (www.sidefx.com)
# 128 points
# 252 vertices
# 63 primitives
# Bounds: [-235.88652, 0, -2431.59937] to [-122.070801, 201.5, -2318.10693]
g 
v -122.174408 0 -2341.72485
v -122.365982 0 -2344.6875
v -122.650528 0 -2347.64258
v -123.027733 0 -2350.58716
v -123.497246 0 -2353.51831
v -124.058624 0 -2356.43359
v -124.711273 0 -2359.32959
v -125.454575 0 -2362.20361
v -126.287773 0 -2365.05298
v -127.210091 0 -2367.87476
v -128.220551 0 -2370.66626
v -129.318222 0 -2373.42456
v -130.501984 0 -2376.14697
v -131.770691 0 -2378.83105
v -133.123047 0 -2381.47363
v -134.557755 0 -2384.07275
v -136.073395 0 -2386.62524
v -137.668457 0 -2389.12915
v -139.3414 0 -2391.58154
v -141.090546 0 -2393.98022
v -142.914154 0 -2396.32275
v -144.810455 0 -2398.60693
v -146.777557 0 -2400.83032
v -148.813538 0 -2402.99072
v -150.916382 0 -2405.08618
v -153.084015 0 -2407.11475
v -155.31427 0 -2409.07397
v -157.60498 0 -2410.9624
v -159.953873 0 -2412.77783
v -162.358627 0 -2414.51855
v -164.816879 0 -2416.18286
v -167.326202 0 -2417.76929
v -169.884094 0 -2419.27588
v -172.488068 0 -2420.70166
v -175.135529 0 -2422.04468
v -177.823883 0 -2423.30396
v -180.550461 0 -2424.47827
v -183.312576 0 -2425.56616
v -186.107513 0 -2426.56689
v -188.932495 0 -2427.47949
v -191.784744 0 -2428.30273
v -194.661438 0 -2429.03589
v -197.559753 0 -2429.67847
v -200.476822 0 -2430.22974
v -203.409775 0 -2430.68896
v -206.355682 0 -2431.05591
v -209.311676 0 -2431.33008
v -212.274826 0 -2431.51147
v -215.242203 0 -2431.59937
v -218.210892 0 -2431.59424
v -221.177933 0 -2431.49585
v -224.140427 0 -2431.3042
v -227.095444 0 -2431.01978
v -230.04007 0 -2430.64258
v -232.97139 0 -2430.17285
v -235.88652 0 -2429.61157
v -123.991692 0 -2318.10693
v -123.440514 0 -2321.02393
v -122.981232 0 -2323.95703
v -122.614304 0 -2326.90283
v -122.34008 0 -2329.85889
v -122.158859 0 -2332.82202
v -122.070801 0 -2335.78931
v -122.075981 0 -2338.75806
v -122.174408 201.5 -2341.72485
v -122.365982 201.5 -2344.6875
v -122.650528 201.5 -2347.64258
v -123.027733 201.5 -2350.58716
v -123.497246 201.5 -2353.51831
v -124.058624 201.5 -2356.43359
v -124.711273 201.5 -2359.32959
v -125.454575 201.5 -2362.20361
v -126.287773 201.5 -2365.05298
v -127.210091 201.5 -2367.87476
v -128.220551 201.5 -2370.66626
v -129.318222 201.5 -2373.42456
v -130.501984 201.5 -2376.14697
v -131.770691 201.5 -2378.83105
v -133.123047 201.5 -2381.47363
v -134.557755 201.5 -2384.07275
v -136.073395 201.5 -2386.62524
v -137.668457 201.5 -2389.12915
v -139.3414 201.5 -2391.58154
v -141.090546 201.5 -2393.98022
v -142.914154 201.5 -2396.32275
v -144.810455 201.5 -2398.60693
v -146.777557 201.5 -2400.83032
v -148.813538 201.5 -2402.99072
v -150.916382 201.5 -2405.08618
v -153.084015 201.5 -2407.11475
v -155.31427 201.5 -2409.07397
v -157.60498 201.5 -2410.9624
v -159.953873 201.5 -2412.77783
v -162.358627 201.5 -2414.51855
v -164.816879 201.5 -2416.18286
v -167.326202 201.5 -2417.76929
v -169.884094 201.5 -2419.27588
v -172.488068 201.5 -2420.70166
v -175.135529 201.5 -2422.04468
v -177.823883 201.5 -2423.30396
v -180.550461 201.5 -2424.47827
v -183.312576 201.5 -2425.56616
v -186.107513 201.5 -2426.56689
v -188.932495 201.5 -2427.47949
v -191.784744 201.5 -2428.30273
v -194.661438 201.5 -2429.03589
v -197.559753 201.5 -2429.67847
v -200.476822 201.5 -2430.22974
v -203.409775 201.5 -2430.68896
v -206.355682 201.5 -2431.05591
v -209.311676 201.5 -2431.33008
v -212.274826 201.5 -2431.51147
v -215.242203 201.5 -2431.59937
v -218.210892 201.5 -2431.59424
v -221.177933 201.5 -2431.49585
v -224.140427 201.5 -2431.3042
v -227.095444 201.5 -2431.01978
v -230.04007 201.5 -2430.64258
v -232.97139 201.5 -2430.17285
v -235.88652 201.5 -2429.61157
v -123.991692 201.5 -2318.10693
v -123.440514 201.5 -2321.02393
v -122.981232 201.5 -2323.95703
v -122.614304 201.5 -2326.90283
v -122.34008 201.5 -2329.85889
v -122.158859 201.5 -2332.82202
v -122.070801 201.5 -2335.78931
v -122.075981 201.5 -2338.75806
vt 0.273570329 0.907371402 218.411987
vt 0.140119284 0.0279707313 137.42041
vt 0.148175269 0.026570648 135.629395
vt 0.279717803 0.913765371 216.621094
vt 0.156964839 0.0251864195 133.903809
vt 0.2862508 0.920027137 214.895386
vt 0.166493744 0.02382195 132.244873
vt 0.29316628 0.926142335 213.23645
vt 0.176765501 0.022480607 130.654541
vt 0.300459087 0.932094455 211.646118
vt 0.187782109 0.0211680532 129.134155
vt 0.308124423 0.93786943 210.125732
vt 0.199539572 0.0198872387 127.685303
vt 0.316154122 0.943450689 208.67688
vt 0.212032259 0.0186445415 126.309448
vt 0.324539959 0.948822856 207.301025
vt 0.225249588 0.0174437463 125.007813
vt 0.333271623 0.953971624 205.99939
vt 0.239176989 0.016289115 123.78186
vt 0.342337191 0.958880544 204.773438
vt 0.253796011 0.0151860416 122.632568
vt 0.351723731 0.963536739 203.624146
vt 0.269083321 0.0141394436 121.561401
vt 0.361416221 0.967923522 202.552979
vt 0.285012305 0.0131527483 120.569214
vt 0.371399105 0.972028613 201.560791
vt 0.301551461 0.0122313201 119.65686
vt 0.381655067 0.975839138 200.648438
vt 0.318662882 0.0113794804 118.825562
vt 0.392163992 0.979341507 199.817139
vt 0.336309552 0.0106008947 118.075806
vt 0.402907848 0.982524991 199.067383
vt 0.354442447 0.00990006328 117.408691
vt 0.413862407 0.985378385 198.400269
vt 0.373018205 0.00927978754 116.824585
vt 0.425008178 0.987892389 197.816162
vt 0.391982406 0.00874358416 116.324219
vt 0.436320007 0.990058184 197.315674
vt 0.411280155 0.00829264522 115.907837
vt 0.447773725 0.991867959 196.899414
vt 0.43085444 0.00793251395 115.576172
vt 0.459344417 0.993315458 196.567749
vt 0.450644493 0.00766265392 115.329346
vt 0.471005946 0.994396091 196.320923
vt 0.470587879 0.0074852407 115.167847
vt 0.48273176 0.995104313 196.159424
vt 0.490622908 0.00740164518 115.091553
vt 0.494496077 0.995439231 196.08313
vt 0.510684013 0.00741165876 115.100708
vt 0.506271183 0.995399296 196.092285
vt 0.530707479 0.00751528144 115.195068
vt 0.518030524 0.994984984 196.186646
vt 0.550627828 0.00771304965 115.375
vt 0.529746354 0.994196653 196.366455
vt 0.57038486 0.00800150633 115.639648
vt 0.541393638 0.993038297 196.631226
vt 0.589913964 0.00838205218 115.989502
vt 0.552944541 0.991512775 196.981079
vt 0.60915637 0.00884988904 116.423584
vt 0.564373851 0.989626646 197.415161
vt 0.628054738 0.00940510631 116.942017
vt 0.575656533 0.987385869 197.933594
vt 0.646555424 0.0100429058 117.543823
vt 0.586768806 0.984799266 198.5354
vt 0.66460526 0.0107606351 118.228638
vt 0.597686172 0.981874228 199.220215
vt 0.682160258 0.0115545392 118.995605
vt 0.608388245 0.978622317 199.987305
vt 0.699172914 0.0124220252 119.84436
vt 0.618852019 0.975053012 200.835938
vt 0.715607166 0.0133573711 120.773682
vt 0.629059255 0.971179366 201.765259
vt 0.731424809 0.0143578053 121.782959
vt 0.638989925 0.967012763 202.774414
vt 0.746596813 0.0154164135 122.87085
vt 0.64862752 0.962567091 203.862427
vt 0.761096478 0.0165307522 124.036499
vt 0.657956421 0.957856417 205.028076
vt 0.774901986 0.0176954269 125.278564
vt 0.666962385 0.952895761 206.27002
vt 0.787994623 0.01890558 126.596069
vt 0.675631762 0.947698057 207.587646
vt 0.800361037 0.0201568902 127.987671
vt 0.683953702 0.94227922 208.979248
vt 0.811990917 0.0214447379 129.451904
vt 0.691917777 0.93665576 210.443359
vt 0.822880268 0.0227641165 130.987305
vt 0.699516296 0.930841923 211.97876
vt 0.833025217 0.0241102576 132.592407
vt 0.706741214 0.924853086 213.583984
vt 0.842428088 0.0254799426 134.265625
vt 0.713587701 0.918705642 215.257324
vt 0.851092696 0.0268678665 136.005371
vt 0.720051408 0.91241473 216.996948
vt 0.859027982 0.0282703936 137.809692
vt 0.726130009 0.90599525 218.80127
vt 0.866238832 0.0296844244 139.677368
vt 0.731819093 0.899461508 220.668945
vt 0.872742176 0.0311046541 141.605835
vt 0.737120748 0.892829955 222.597412
vt 0.87855041 0.0325290263 143.593628
vt 0.742034733 0.886113286 224.585205
vt 0.883680105 0.0339535177 145.638672
vt 0.746563137 0.879326224 226.630249
vt 0.888147473 0.0353757739 147.738892
vt 0.750707626 0.872482896 228.730469
vt 0.891972423 0.0367927551 149.892334
vt 0.754472733 0.865594864 230.883911
vt 0.895171523 0.0382013023 152.096924
vt 0.75786072 0.858675301 233.088501
vt 0.897770405 0.0396001935 154.350342
vt 0.760879993 0.851736426 235.341919
vt 0.238280028 0.853214979 234.858032
vt 0.100516945 0.0393030643 153.866455
vt 0.103209555 0.037902385 151.623413
vt 0.241363525 0.860150576 232.61499
vt 0.106507838 0.0364913344 149.429443
vt 0.244817913 0.867064595 230.421021
vt 0.110434324 0.0350731909 147.287231
vt 0.24864924 0.873943925 228.278809
vt 0.115007907 0.0336503983 145.198486
vt 0.2528615 0.880776763 226.190063
vt 0.120245725 0.032225132 143.165405
vt 0.257457137 0.887550116 224.156982
vt 0.126167387 0.0308015645 141.190186
vt 0.262440026 0.894249141 222.181763
vt 0.13278833 0.0293824673 139.274414
vt 0.267811686 0.90086174 220.265991
vn 0.998806119 0 -0.0488505289
vn 0.996778846 0 -0.080199495
vn 0.993767977 0 -0.111468971
vn 0.989776433 0 -0.142627448
vn 0.984807849 0 -0.173648015
vn 0.978867054 0 -0.204497486
vn 0.971960783 0 -0.235142916
vn 0.964095771 0 -0.265554845
vn 0.955278397 0 -0.295707732
vn 0.945518315 0 -0.325568795
vn 0.934825838 0 -0.355106533
vn 0.923210263 0 -0.384295344
vn 0.910683513 0 -0.413104892
vn 0.897258043 0 -0.441506684
vn 0.882947743 0 -0.469471335
vn 0.867765963 0 -0.496973127
vn 0.851727009 0 -0.523985863
vn 0.834847748 0 -0.550480902
vn 0.817144513 0 -0.576432824
vn 0.798635483 0 -0.601814926
vn 0.779338181 0 -0.626603544
vn 0.759271026 0 -0.650774479
vn 0.738455176 0 -0.674302638
vn 0.716910005 0 -0.697165847
vn 0.694658995 0 -0.719339192
vn 0.67172122 0 -0.740803897
vn 0.64811933 0 -0.761538804
vn 0.623878956 0 -0.781521022
vn 0.599023402 0 -0.800731421
vn 0.573576272 0 -0.819152176
vn 0.54756242 0 -0.836764872
vn 0.52101016 0 -0.853550494
vn 0.493941456 0 -0.869495094
vn 0.466385782 0 -0.884581447
vn 0.438371122 0 -0.898794055
vn 0.409921825 0 -0.9121207
vn 0.381071061 0 -0.924545884
vn 0.351842284 0 -0.936059296
vn 0.322265118 0 -0.946649551
vn 0.292371601 0 -0.956304848
vn 0.262188613 0 -0.965016663
vn 0.231747419 0 -0.972776115
vn 0.20107761 0 -0.979575276
vn 0.170209378 0 -0.985407948
vn 0.139172569 0 -0.990268171
vn 0.107998304 0 -0.994151056
vn 0.0767188668 0 -0.997052789
vn 0.0453627259 0 -0.998970628
vn 0.0139622129 0 -0.999902606
vn -0.0174531117 0 -0.99984777
vn -0.0488510467 0 -0.998806119
vn -0.080199495 0 -0.996778846
vn -0.111470222 0 -0.993767738
vn -0.142629951 0 -0.989776015
vn -0.173648 0 -0.984807849
vn -0.189094737 0 -0.981958807
vn 0.982612967 0 0.18566601
vn 0.985408187 0 0.170208082
vn 0.99026835 0 0.139171258
vn 0.994151056 0 0.107998274
vn 0.997052908 0 0.0767162964
vn 0.998970747 0 0.0453601703
vn 0.999902546 0 0.0139609156
vn 0.999847651 0 -0.0174538661
vn 0.998806119 0 -0.0488505289
vn 0.996778846 0 -0.080199495
vn 0.993767977 0 -0.111468971
vn 0.989776433 0 -0.142627448
vn 0.984807849 0 -0.173648015
vn 0.978867054 0 -0.204497486
vn 0.971960783 0 -0.235142916
vn 0.964095771 0 -0.265554845
vn 0.955278397 0 -0.295707732
vn 0.945518315 0 -0.325568795
vn 0.934825838 0 -0.355106533
vn 0.923210263 0 -0.384295344
vn 0.910683513 0 -0.413104892
vn 0.897258043 0 -0.441506684
vn 0.882947743 0 -0.469471335
vn 0.867765963 0 -0.496973127
vn 0.851727009 0 -0.523985863
vn 0.834847748 0 -0.550480902
vn 0.817144513 0 -0.576432824
vn 0.798635483 0 -0.601814926
vn 0.779338181 0 -0.626603544
vn 0.759271026 0 -0.650774479
vn 0.738455176 0 -0.674302638
vn 0.716910005 0 -0.697165847
vn 0.694658995 0 -0.719339192
vn 0.67172122 0 -0.740803897
vn 0.64811933 0 -0.761538804
vn 0.623878956 0 -0.781521022
vn 0.599023402 0 -0.800731421
vn 0.573576272 0 -0.819152176
vn 0.54756242 0 -0.836764872
vn 0.52101016 0 -0.853550494
vn 0.493941456 0 -0.869495094
vn 0.466385782 0 -0.884581447
vn 0.438371122 0 -0.898794055
vn 0.409921825 0 -0.9121207
vn 0.381071061 0 -0.924545884
vn 0.351842284 0 -0.936059296
vn 0.322265118 0 -0.946649551
vn 0.292371601 0 -0.956304848
vn 0.262188613 0 -0.965016663
vn 0.231747419 0 -0.972776115
vn 0.20107761 0 -0.979575276
vn 0.170209378 0 -0.985407948
vn 0.139172569 0 -0.990268171
vn 0.107998304 0 -0.994151056
vn 0.0767188668 0 -0.997052789
vn 0.0453627259 0 -0.998970628
vn 0.0139622129 0 -0.999902606
vn -0.0174531117 0 -0.99984777
vn -0.0488510467 0 -0.998806119
vn -0.080199495 0 -0.996778846
vn -0.111470222 0 -0.993767738
vn -0.142629951 0 -0.989776015
vn -0.173648 0 -0.984807849
vn -0.189094737 0 -0.981958807
vn 0.982612967 0 0.18566601
vn 0.985408187 0 0.170208082
vn 0.99026835 0 0.139171258
vn 0.994151056 0 0.107998274
vn 0.997052908 0 0.0767162964
vn 0.998970747 0 0.0453601703
vn 0.999902546 0 0.0139609156
vn 0.999847651 0 -0.0174538661
g Max_MaterialID_2
f 65/1/65 1/2/1 2/3/2 66/4/66
f 66/4/66 2/3/2 3/5/3 67/6/67
f 67/6/67 3/5/3 4/7/4 68/8/68
f 68/8/68 4/7/4 5/9/5 69/10/69
f 69/10/69 5/9/5 6/11/6 70/12/70
f 70/12/70 6/11/6 7/13/7 71/14/71
f 71/14/71 7/13/7 8/15/8 72/16/72
f 72/16/72 8/15/8 9/17/9 73/18/73
f 73/18/73 9/17/9 10/19/10 74/20/74
f 74/20/74 10/19/10 11/21/11 75/22/75
f 75/22/75 11/21/11 12/23/12 76/24/76
f 76/24/76 12/23/12 13/25/13 77/26/77
f 77/26/77 13/25/13 14/27/14 78/28/78
f 78/28/78 14/27/14 15/29/15 79/30/79
f 79/30/79 15/29/15 16/31/16 80/32/80
f 80/32/80 16/31/16 17/33/17 81/34/81
f 81/34/81 17/33/17 18/35/18 82/36/82
f 82/36/82 18/35/18 19/37/19 83/38/83
f 83/38/83 19/37/19 20/39/20 84/40/84
f 84/40/84 20/39/20 21/41/21 85/42/85
f 85/42/85 21/41/21 22/43/22 86/44/86
f 86/44/86 22/43/22 23/45/23 87/46/87
f 87/46/87 23/45/23 24/47/24 88/48/88
f 88/48/88 24/47/24 25/49/25 89/50/89
f 89/50/89 25/49/25 26/51/26 90/52/90
f 90/52/90 26/51/26 27/53/27 91/54/91
f 91/54/91 27/53/27 28/55/28 92/56/92
f 92/56/92 28/55/28 29/57/29 93/58/93
f 93/58/93 29/57/29 30/59/30 94/60/94
f 94/60/94 30/59/30 31/61/31 95/62/95
f 95/62/95 31/61/31 32/63/32 96/64/96
f 96/64/96 32/63/32 33/65/33 97/66/97
f 97/66/97 33/65/33 34/67/34 98/68/98
f 98/68/98 34/67/34 35/69/35 99/70/99
f 99/70/99 35/69/35 36/71/36 100/72/100
f 100/72/100 36/71/36 37/73/37 101/74/101
f 101/74/101 37/73/37 38/75/38 102/76/102
f 102/76/102 38/75/38 39/77/39 103/78/103
f 103/78/103 39/77/39 40/79/40 104/80/104
f 104/80/104 40/79/40 41/81/41 105/82/105
f 105/82/105 41/81/41 42/83/42 106/84/106
f 106/84/106 42/83/42 43/85/43 107/86/107
f 107/86/107 43/85/43 44/87/44 108/88/108
f 108/88/108 44/87/44 45/89/45 109/90/109
f 109/90/109 45/89/45 46/91/46 110/92/110
f 110/92/110 46/91/46 47/93/47 111/94/111
f 111/94/111 47/93/47 48/95/48 112/96/112
f 112/96/112 48/95/48 49/97/49 113/98/113
f 113/98/113 49/97/49 50/99/50 114/100/114
f 114/100/114 50/99/50 51/101/51 115/102/115
f 115/102/115 51/101/51 52/103/52 116/104/116
f 116/104/116 52/103/52 53/105/53 117/106/117
f 117/106/117 53/105/53 54/107/54 118/108/118
f 118/108/118 54/107/54 55/109/55 119/110/119
f 119/110/119 55/109/55 56/111/56 120/112/120
f 121/113/121 57/114/57 58/115/58 122/116/122
f 122/116/122 58/115/58 59/117/59 123/118/123
f 123/118/123 59/117/59 60/119/60 124/120/124
f 124/120/124 60/119/60 61/121/61 125/122/125
f 125/122/125 61/121/61 62/123/62 126/124/126
f 126/124/126 62/123/62 63/125/63 127/126/127
f 127/126/127 63/125/63 64/127/64 128/128/128
f 128/128/128 64/127/64 1/2/1 65/1/65
