# 3ds Max Wavefront OBJ Exporter v0.97b - (c)2007 guruware
# File Created: 22.07.2022 01:20:19

mtllib qqq.mtl

#
# object Box001
#

v  -24.4527 0.0000 24.7565
v  -24.4527 0.0000 -21.3406
v  9.0930 0.0000 -21.3406
v  9.0930 0.0000 24.7565
v  9.0930 29.9177 24.7565
v  -24.4527 29.9177 24.7565
v  9.0930 29.9177 -21.3406
v  -24.4527 29.9177 -21.3406
# 8 vertices

vn 0.0000 -1.0000 -0.0000
vn 0.0000 0.0000 1.0000
vn 1.0000 0.0000 -0.0000
vn 0.0000 0.0000 -1.0000
# 4 vertex normals

vt 0.8543 0.2122 -1.9869
vt 0.1659 0.2070 -1.9729
vt 0.2570 0.4171 -2.7657
vt 0.7487 0.4197 -2.7796
vt 0.7673 0.8537 -2.5864
vt 0.8925 0.8156 -1.7936
vt 0.2388 0.8533 -2.5724
vt 0.1296 0.8147 -1.7796
# 8 texture coords

g Box001
usemtl wire_108008136
s 2
f 1/1/1 2/2/1 3/3/1 4/4/1 
s 8
f 1/1/2 4/4/2 5/5/2 6/6/2 
s 16
f 4/4/3 3/3/3 7/7/3 5/5/3 
s 32
f 3/3/4 2/2/4 8/8/4 7/7/4 
# 4 polygons

