# 3ds Max Wavefront OBJ Exporter v0.97b - (c)2007 guruware
# File Created: 20.07.2022 16:23:10

mtllib input.mtl

#
# object Plane001
#

v  -44.8915 0.0000 -26.1849
v  -44.8915 0.0000 40.7980
v  17.3929 0.0000 40.7980
v  17.3929 0.0000 -26.1849
# 4 vertices

vn 0.0000 1.0000 -0.0000
# 1 vertex normals

vt 0.0000 1.0000 0.0000
vt 0.0000 0.0000 0.0000
vt 1.0000 0.0000 0.0000
vt 1.0000 1.0000 0.0000
# 4 texture coords

g Plane001
usemtl wire_184228153
s 1
f 1/1/1 2/2/1 3/3/1 4/4/1 
# 1 polygons

